# xmcd
#
# Track frame offsets:
#	150
#	7194
#	20879
#	34876
#	48519
#	56873
#	68672
#	86519
#	96615
#	112466
#	124673
#	146112
#	178560
#
# Disc length: 2677 seconds
#
# Revision: 0
# Processed by: cddbd v1.5.2PL0 Copyright (c) Steve Scherf et al.
# Submitted via: EasyCDDAExtractor 11.0.2.1
#
DISCID=c90a730d
DTITLE=CJ Shaw - Impatient Generation
DYEAR=2007
DGENRE=Blues
TTITLE0=Watch Me Dance Now
TTITLE1=The Take Me Back Blues
TTITLE2=Commonwealth Street
TTITLE3=Biblical Floodings
TTITLE4=Sad Intro
TTITLE5=Pink Stitch
TTITLE6=Rolling Stone
TTITLE7=Only Time Can Heal
TTITLE8=Nose For Sorrow
TTITLE9=Bushfire
TTITLE10=Darling
TTITLE11=Country Fortune
TTITLE12=Pressing Issues
EXTD=
EXTT0=
EXTT1=
EXTT2=
EXTT3=
EXTT4=
EXTT5=
EXTT6=
EXTT7=
EXTT8=
EXTT9=
EXTT10=
EXTT11=
EXTT12=
PLAYORDER=
